Coordinates
version=1
nRows=22
nColumns=24
inDegrees=yes

Units are S.I. units (second, meters, Newtons, ...)
Angles are in degrees.

endheader
time	pelvis_tilt	pelvis_list	pelvis_rotation	pelvis_tx	pelvis_ty	pelvis_tz	hip_flexion_r	hip_adduction_r	hip_rotation_r	knee_angle_r	ankle_angle_r	subtalar_angle_r	mtp_angle_r	hip_flexion_l	hip_adduction_l	hip_rotation_l	knee_angle_l	ankle_angle_l	subtalar_angle_l	mtp_angle_l	lumbar_extension	lumbar_bending	lumbar_rotation
      4.77000000	     -7.41144868	      2.34126324	     -8.07425877	     -0.61137723	     -0.04874721	      0.56758622	     -8.63710404	     -1.67354788	      7.13924232	    -14.28166680	     13.83685818	     -0.64704143	      4.43532754	     35.79615909	     -2.68398638	    -16.20544975	    -15.87174438	     -6.79716604	     10.31118629	     10.52368221	      5.21507271	     -2.43559087	     12.32379163
      4.77500000	     -7.44902118	      2.81543989	     -8.04495902	     -0.60367273	     -0.04973284	      0.56695033	     -8.67196283	     -2.28044531	      6.95525332	    -15.02900921	     13.64884863	     -0.35883067	      4.65914107	     36.00640927	     -2.19707114	    -16.01426023	    -16.79859239	     -7.72040609	      9.68973415	     11.36224301	      5.38887343	     -2.97910984	     12.26023348
      4.78000000	     -7.48204556	      3.29009409	     -8.02344491	     -0.59596190	     -0.05063640	      0.56631251	     -8.67929224	     -2.89163994	      6.81922868	    -15.83271675	     13.36629085	     -0.07185803	      4.92548547	     36.24249530	     -1.72414915	    -15.79746786	    -17.82546670	     -8.50091373	      9.25938713	     11.99043747	      5.55645049	     -3.52020160	     12.21682672
      4.78500000	     -7.50467026	      3.76250764	     -7.97651038	     -0.58822393	     -0.05145949	      0.56563731	     -8.66603725	     -3.50642370	      6.63287783	    -16.69822418	     12.99263148	      0.27569021	      5.26224748	     36.49199117	     -1.23978835	    -15.52413530	    -18.92221155	     -9.13744841	      8.92748613	     12.47936387	      5.71113161	     -4.06655592	     12.14209902
      4.79000000	     -7.52349481	      4.22822407	     -7.91381992	     -0.58047305	     -0.05220506	      0.56494652	     -8.62149516	     -4.11821130	      6.44109041	    -17.63092588	     12.52869629	      0.67388097	      5.66015589	     36.75122202	     -0.75619170	    -15.23593391	    -20.06803833	     -9.61230528	      8.68677927	     12.80974929	      5.85908321	     -4.60811587	     12.07683116
      4.79500000	     -7.53243362	      4.67425392	     -7.84861366	     -0.57269110	     -0.05286492	      0.56421617	     -8.53359503	     -4.72338538	      6.18287804	    -18.66129135	     11.94692990	      1.16123753	      6.16832674	     36.99214419	     -0.28305154	    -14.96670116	    -21.22620591	     -9.89467800	      8.45229717	     13.03618514	      5.99541052	     -5.12661381	     11.97965649
      4.80000000	     -7.54922338	      5.10861546	     -7.76923883	     -0.56491882	     -0.05345159	      0.56351932	     -8.38952012	     -5.31229763	      5.95974502	    -19.78385513	     11.26487820	      1.67673511	      6.69048028	     37.22833530	      0.17679008	    -14.73741231	    -22.37963012	    -10.02235204	      8.30026482	     13.13957081	      6.13179882	     -5.64150896	     11.87548570
      4.80500000	     -7.56216247	      5.48987559	     -7.67719075	     -0.55709054	     -0.05395673	      0.56275396	     -8.20140495	     -5.86343454	      5.64375774	    -20.99923234	     10.44005037	      2.30442666	      7.28019373	     37.43487440	      0.59760034	    -14.59833361	    -23.52311945	     -9.95117824	      8.09987883	     13.16791423	      6.26384581	     -6.08956457	     11.78556420
      4.81000000	     -7.55837264	      5.82914112	     -7.59228223	     -0.54936364	     -0.05433217	      0.56199824	     -7.95647260	     -6.38731835	      5.30557837	    -22.32471527	      9.50168930	      3.04338625	      8.03229283	     37.57959342	      0.98735196	    -14.42712607	    -24.59965226	     -9.77125057	      7.90584600	     13.10220508	      6.35310741	     -6.49980277	     11.69708762
      4.81500000	     -7.55313585	      6.13571315	     -7.47812892	     -0.54162459	     -0.05460812	      0.56121006	     -7.66701736	     -6.88014484	      4.95961911	    -23.73271550	      8.41328957	      3.76912721	      8.83685209	     37.66767553	      1.36591625	    -14.33252895	    -25.59589128	     -9.45227848	      7.73444026	     13.00641838	      6.43493990	     -6.87750737	     11.58989432
      4.82000000	     -7.54338801	      6.46120125	     -7.34486485	     -0.53382794	     -0.05470237	      0.56038345	     -7.34388226	     -7.40792188	      4.59651426	    -25.15792165	      7.09777247	      4.38530201	     10.12376560	     37.66001509	      1.81571099	    -14.13702826	    -26.43964191	     -9.04431232	      7.51030811	     12.70562260	      6.52570475	     -7.27410200	     11.50832530
      4.82500000	     -7.52372388	      6.65391072	     -7.21574124	     -0.52627989	     -0.05470916	      0.55961131	     -6.94615307	     -7.78965695	      4.28815844	    -26.74399313	      5.71057719	      5.18597082	     10.82191516	     37.61983576	      2.09012176	    -14.18298616	    -27.25942275	     -8.57703120	      7.50653474	     12.76582727	      6.54314289	     -7.53732054	     11.35285004
      4.83000000	     -7.51742859	      6.93304990	     -7.07168868	     -0.51870227	     -0.05460066	      0.55870076	     -6.46536607	     -8.29585155	      3.88112220	    -28.36011355	      4.17677523	      5.79729772	     12.25023505	     37.50158121	      2.52707822	    -14.08836004	    -27.89190261	     -8.08179648	      7.24061958	     12.61125949	      6.59767363	     -7.87500189	     11.23571472
      4.83500000	     -7.51316406	      7.11462334	     -6.91120456	     -0.51120805	     -0.05438762	      0.55788591	     -5.93937109	     -8.68144495	      3.54718441	    -30.06928119	      2.57511347	      6.59324297	     12.80950477	     37.32804268	      2.83605634	    -14.14048344	    -28.45117285	     -7.49410426	      7.35590633	     12.82445479	      6.63211467	     -8.12082540	     11.07839222
      4.84000000	     -7.54046130	      7.35809201	     -6.75006129	     -0.50380966	     -0.05410827	      0.55700683	     -5.28750935	     -9.14989968	      3.18284812	    -31.86371862	      0.95173543	      7.32277885	     13.49964850	     37.11938400	      3.23939283	    -14.15710588	    -28.85373899	     -6.94065503	      7.32360647	     13.00284878	      6.70203978	     -8.42015715	     10.94102392
      4.84500000	     -7.54943751	      7.59651334	     -6.61141043	     -0.49659272	     -0.05368393	      0.55607649	     -4.58214765	     -9.62122061	      2.88066485	    -33.65818236	     -0.76408966	      7.78049258	     14.81478226	     36.82713073	      3.67426368	    -14.08606659	    -29.11261795	     -6.43041879	      7.11960473	     13.21403426	      6.73173029	     -8.70116438	     10.84823124
      4.85000000	     -7.58362924	      7.83096013	     -6.43877838	     -0.48936109	     -0.05320620	      0.55522150	     -3.81613939	    -10.06095390	      2.62267071	    -35.51314603	     -2.41536448	      8.27243776	     15.31808522	     36.51245417	      4.08345021	    -14.15387069	    -29.30845698	     -5.84003660	      7.24582562	     13.47986240	      6.79922725	     -8.98990640	     10.66894967
      4.85500000	     -7.63487711	      8.08576595	     -6.29597571	     -0.48231232	     -0.05268068	      0.55436757	     -2.93763749	    -10.52036564	      2.41630247	    -37.43354161	     -3.97402927	      8.61294635	     15.90954315	     36.17107559	      4.52370597	    -14.17618330	    -29.39103442	     -5.29812512	      7.22166806	     13.74169835	      6.87280110	     -9.28827721	     10.54760611
      4.86000000	     -7.64189588	      8.33639622	     -6.11705056	     -0.47534715	     -0.05205439	      0.55358266	     -2.07661175	    -10.94569342	      2.21675223	    -39.37568900	     -5.42493340	      8.68015668	     16.17317452	     35.74073958	      4.98264746	    -14.17378183	    -29.40204916	     -4.71424947	      7.35310769	     13.96411934	      6.88624293	     -9.60470381	     10.36749853
      4.86500000	     -7.75131697	      8.63693894	     -5.99563665	     -0.46853044	     -0.05146343	      0.55274527	     -1.00637091	    -11.42039950	      2.15921730	    -41.34601158	     -6.72657058	      8.71145864	     16.91084190	     35.38676638	      5.46872455	    -14.17816993	    -29.30537598	     -4.25585537	      7.31657925	     14.28362906	      7.01868540	     -9.92897652	     10.28309903
      4.87000000	     -7.75481747	      8.92059573	     -5.80610182	     -0.46171236	     -0.05071545	      0.55199879	     -0.06425400	    -11.84434905	      2.04904815	    -43.30230047	     -7.88630184	      8.44942368	     17.05228343	     34.88263367	      5.97679060	    -14.18701000	    -29.16887258	     -3.72634024	      7.45930083	     14.44649469	      7.02535734	    -10.28252860	     10.04292350
      4.87500000	     -7.81068394	      9.24957007	     -5.65060470	     -0.45500476	     -0.04999105	      0.55128694	      1.00625867	    -12.29938156	      2.02346181	    -45.28851320	     -8.82600774	      8.06278949	     17.21441610	     34.40935835	      6.51369648	    -14.19423773	    -28.95750071	     -3.25962150	      7.54337233	     14.58729595	      7.09559272	    -10.66650723	      9.86325633
